<svg xmlns="http://www.w3.org/2000/svg" viewBox="0 0 64 64" role="img" aria-label="Carlos Aranda">
  <rect width="64" height="64" rx="14" fill="#f8fafc"/>
  <g fill="none" stroke="#111827" stroke-width="5.6" stroke-linecap="round" stroke-linejoin="round">
    <path d="M9 43c-3-15 2-26 15-34 13-8 31-7 43 2 10 8 14 19 10 31" transform="scale(.78) translate(0 0)"/>
    <path d="M24 55c13 5 32 5 45-1" transform="scale(.78) translate(0 0)"/>
    <path d="M20 29c5 4 9 3 12-1 2-3 0-5-4-5-5 1-10 6-11 9 7 0 14-5 18-12" transform="scale(.78) translate(0 0)"/>
    <path d="M35 20l12 13 11-11c4-4 10-4 15 0" transform="scale(.78) translate(0 0)"/>
    <path d="M58 22c0 7 4 12 10 15" transform="scale(.78) translate(0 0)"/>
    <path d="M15 22l9 5M13 28l8 3" transform="scale(.78) translate(0 0)"/>
  </g>
  <circle cx="50" cy="13" r="5" fill="#ff2d55"/>
</svg>
